# xmcd
#
# Track frame offsets:
#        187
#        20367
#        62165
#
# Disc length: 1041 seconds
#
# Revision: 0
# Processed by: cddbd v1.5.1PL2 Copyright (c) Steve Scherf et al.
# Submitted via: ExactAudioCopy v0.95b3
#
DISCID=1e040f03
DTITLE=ROCKET - DEF LEPPARD
DYEAR=1900
DGENRE=Heavy Metal
TTITLE0=ROCKET (THE LUNAR MIX)
TTITLE1=ROCK OF AGES (LIVE)
TTITLE2=RELEASE ME
EXTD=
EXTT0=
EXTT1=
EXTT2=
PLAYORDER=
